static_grf.mot
version=1
nRows=10
nColumns 19
inDegrees=yes
endheader
time	1_ground_force_vx	1_ground_force_vy	1_ground_force_vz	1_ground_force_px	1_ground_force_py	1_ground_force_pz	1_ground_torque_x	1_ground_torque_y	1_ground_torque_z	2_ground_force_vx	2_ground_force_vy	2_ground_force_vz	2_ground_force_px	2_ground_force_py	2_ground_force_pz	2_ground_torque_x	2_ground_torque_y	2_ground_torque_z
            0.492500	           -0.565896	          306.900954	          -19.410153	           -0.271072	            0.006134	           -0.386090	           -0.003956	            2.145396	           -0.135687	           -1.021502	          311.503348	           22.417063	           -0.267176	            0.005542	           -0.704090	            0.006105	           -1.861685	           -0.133975
            0.493000	           -0.749789	          307.262236	          -19.591575	           -0.270974	            0.006133	           -0.385905	           -0.005392	            2.209552	           -0.140885	           -1.346169	          310.581734	           22.320061	           -0.267758	            0.005539	           -0.703760	            0.008211	           -1.894347	           -0.136138
            0.493500	           -0.750505	          307.443712	          -19.865938	           -0.271022	            0.006134	           -0.386171	           -0.005241	            2.146766	           -0.138717	           -1.301190	          311.133321	           22.603581	           -0.267513	            0.005540	           -0.703992	            0.007849	           -1.876836	           -0.136351
            0.494000	           -0.933599	          306.542121	          -19.823491	           -0.271338	            0.006135	           -0.386432	           -0.006592	            2.164421	           -0.139969	           -1.065070	          310.582749	           22.319941	           -0.267396	            0.005541	           -0.704068	            0.006465	           -1.885362	           -0.135491
            0.494500	           -0.474764	          307.442585	          -19.591485	           -0.271172	            0.006132	           -0.385821	           -0.003317	            2.148053	           -0.136883	           -0.970623	          310.398277	           22.506957	           -0.267657	            0.005539	           -0.703751	            0.005883	           -1.881364	           -0.136418
            0.495000	           -0.750424	          307.623750	          -19.819309	           -0.270560	            0.006133	           -0.385906	           -0.005367	            2.200192	           -0.141752	           -1.017576	          310.398944	           22.272336	           -0.267731	            0.005539	           -0.703871	            0.006033	           -1.840189	           -0.132041
            0.495500	           -0.613189	          307.984702	          -19.909816	           -0.270879	            0.006132	           -0.385761	           -0.004234	            2.126752	           -0.137485	           -1.206949	          310.950523	           22.321315	           -0.267243	            0.005541	           -0.703856	            0.007161	           -1.844976	           -0.132440
            0.496000	           -0.933111	          306.361099	          -19.640841	           -0.271363	            0.006134	           -0.386300	           -0.006601	            2.167342	           -0.138949	           -1.114537	          311.318807	           22.416446	           -0.267378	            0.005540	           -0.703831	            0.006671	           -1.863292	           -0.134166
            0.496500	           -0.796088	          307.263014	          -19.774885	           -0.270934	            0.006134	           -0.386114	           -0.005509	            2.126239	           -0.136841	           -1.206949	          310.950523	           22.321315	           -0.267486	            0.005541	           -0.704158	            0.007145	           -1.840715	           -0.132134
            0.497000	           -0.933925	          307.083342	          -19.912884	           -0.271477	            0.006135	           -0.386395	           -0.006265	            2.059936	           -0.133577	           -1.350842	          311.870947	           22.277732	           -0.267503	            0.005541	           -0.704237	            0.008011	           -1.849595	           -0.132121
